<?xml version='1.0' encoding='ascii'?>
<svg xmlns="http://www.w3.org/2000/svg" version="1.1" width="1920" height="1080">
    <g id="View Layer_LineSet" xmlns:inkscape="http://www.inkscape.org/namespaces/inkscape" inkscape:groupmode="lineset" inkscape:label="View Layer_LineSet">
        <g xmlns:inkscape="http://www.inkscape.org/namespaces/inkscape" inkscape:groupmode="layer" id="strokes" inkscape:label="strokes">
            <path fill="none" stroke-width="3.0" stroke-linecap="butt" stroke-opacity="1.0" stroke="rgb(0, 0, 0)" stroke-linejoin="round" d=" M 1391.910, 428.755 1382.054, 427.064 1372.198, 425.374 1362.342, 423.683 1352.485, 421.992 1342.629, 420.302 1332.773, 418.611 1322.917, 416.921 1313.061, 415.230 1303.205, 413.540 1293.349, 411.849 1283.493, 410.159 1273.637, 408.468 1263.781, 406.778 1253.925, 405.087 1244.069, 403.397 1234.213, 401.706 1224.357, 400.016 1214.500, 398.325 1204.644, 396.635 1194.788, 394.944 1184.932, 393.254 1175.076, 391.563 1165.220, 389.873 1155.364, 388.182 1145.508, 386.491 1135.652, 384.801 1125.796, 383.110 1115.940, 381.420 1106.084, 379.729 1096.228, 378.039 1086.372, 376.348 1076.516, 374.658 1066.659, 372.967 1056.803, 371.277 1046.947, 369.586 1037.091, 367.896 1027.235, 366.205 1017.379, 364.515 1007.523, 362.824 997.667, 361.134 987.811, 359.443 977.955, 357.753 968.099, 356.062 958.243, 354.372 948.387, 352.681 938.189, 350.932 " />
            <path fill="none" stroke-width="3.0" stroke-linecap="butt" stroke-opacity="1.0" stroke="rgb(0, 0, 0)" stroke-linejoin="round" d=" M 937.660, 216.501 937.700, 226.501 937.739, 236.501 937.778, 246.500 937.818, 256.500 937.857, 266.500 937.896, 276.500 937.935, 286.500 937.975, 296.500 938.014, 306.500 938.053, 316.500 938.093, 326.500 938.132, 336.500 938.171, 346.500 938.189, 350.932 930.527, 357.359 922.866, 363.786 915.205, 370.213 907.544, 376.640 899.882, 383.067 892.221, 389.494 884.560, 395.920 876.899, 402.347 869.238, 408.774 861.576, 415.201 853.915, 421.628 846.254, 428.055 838.593, 434.482 830.931, 440.909 823.270, 447.336 815.609, 453.763 807.948, 460.190 800.287, 466.617 792.625, 473.044 784.964, 479.471 777.303, 485.898 769.642, 492.325 761.980, 498.752 754.319, 505.179 746.658, 511.606 738.997, 518.032 731.336, 524.459 723.674, 530.886 716.013, 537.313 708.352, 543.740 700.691, 550.167 693.029, 556.594 685.368, 563.021 677.707, 569.448 670.046, 575.875 662.385, 582.302 654.723, 588.729 647.062, 595.156 639.401, 601.583 631.740, 608.010 624.078, 614.437 616.417, 620.864 608.756, 627.291 601.095, 633.718 593.434, 640.145 585.772, 646.571 578.111, 652.998 570.450, 659.425 562.789, 665.852 555.127, 672.279 547.466, 678.706 539.805, 685.133 532.144, 691.560 524.483, 697.987 516.821, 704.414 510.723, 709.530 " />
            <path fill="none" stroke-width="3.0" stroke-linecap="butt" stroke-opacity="1.0" stroke="rgb(0, 0, 0)" stroke-linejoin="round" d=" M 510.723, 709.530 520.444, 711.874 530.165, 714.219 539.887, 716.563 549.608, 718.908 559.329, 721.252 569.051, 723.597 578.772, 725.941 588.493, 728.286 598.215, 730.630 607.936, 732.974 617.657, 735.319 627.378, 737.663 637.100, 740.008 646.821, 742.352 656.542, 744.697 666.264, 747.041 675.985, 749.386 685.706, 751.730 695.427, 754.074 705.149, 756.419 714.870, 758.763 724.591, 761.108 734.313, 763.452 744.034, 765.797 753.755, 768.141 763.477, 770.486 773.198, 772.830 782.919, 775.174 792.640, 777.519 802.362, 779.863 812.083, 782.208 821.804, 784.552 831.526, 786.897 841.247, 789.241 850.968, 791.586 860.690, 793.930 870.411, 796.275 880.132, 798.619 889.853, 800.963 899.575, 803.308 909.296, 805.652 919.017, 807.997 928.739, 810.341 938.460, 812.686 948.181, 815.030 957.902, 817.375 967.624, 819.719 977.345, 822.063 987.066, 824.408 996.788, 826.752 1006.509, 829.097 1016.230, 831.441 1025.952, 833.786 1035.673, 836.130 1045.394, 838.475 1055.115, 840.819 1064.837, 843.163 1074.558, 845.508 1081.372, 847.151 1087.332, 839.121 1093.292, 831.091 1099.251, 823.061 1105.211, 815.031 1111.171, 807.002 1117.131, 798.972 1123.091, 790.942 1129.051, 782.912 1135.011, 774.882 1140.971, 766.852 1146.931, 758.822 1152.891, 750.792 1158.850, 742.762 1164.810, 734.732 1170.770, 726.702 1176.730, 718.672 1182.690, 710.642 1188.650, 702.612 1194.610, 694.583 1200.570, 686.553 1206.529, 678.523 1212.489, 670.493 1218.449, 662.463 1224.409, 654.433 1230.369, 646.403 1236.329, 638.373 1242.289, 630.343 1248.249, 622.313 1254.209, 614.283 1260.168, 606.253 1266.128, 598.223 1272.088, 590.194 1278.048, 582.164 1284.008, 574.134 1289.968, 566.104 1295.928, 558.074 1301.888, 550.044 1307.848, 542.014 1313.807, 533.984 1319.767, 525.954 1325.727, 517.924 1331.687, 509.894 1337.647, 501.864 1343.607, 493.834 1349.567, 485.804 1355.527, 477.775 1361.487, 469.745 1367.446, 461.715 1373.406, 453.685 1379.366, 445.655 1385.326, 437.625 1391.910, 428.755 1392.696, 418.786 1393.483, 408.817 1394.270, 398.848 1395.056, 388.878 1395.843, 378.909 1396.630, 368.940 1397.416, 358.971 1398.203, 349.002 1398.989, 339.033 1399.776, 329.064 1400.563, 319.095 1401.349, 309.126 1402.136, 299.157 1402.923, 289.188 1403.103, 286.901 1393.215, 285.405 1383.328, 283.910 1373.440, 282.414 1363.553, 280.919 1353.665, 279.423 1343.778, 277.928 1333.890, 276.432 1324.003, 274.937 1314.115, 273.441 1304.228, 271.946 1294.340, 270.450 1284.453, 268.955 1274.565, 267.459 1264.677, 265.964 1254.790, 264.468 1244.902, 262.972 1235.015, 261.477 1225.127, 259.981 1215.240, 258.486 1205.352, 256.990 1195.465, 255.495 1185.577, 253.999 1175.690, 252.504 1165.802, 251.008 1155.915, 249.513 1146.027, 248.017 1136.140, 246.522 1126.252, 245.026 1116.365, 243.531 1106.477, 242.035 1096.589, 240.539 1086.702, 239.044 1076.814, 237.548 1066.927, 236.053 1057.039, 234.557 1047.152, 233.062 1037.264, 231.566 1027.377, 230.071 1017.489, 228.575 1007.602, 227.080 997.714, 225.584 987.826, 224.089 977.939, 222.593 968.051, 221.097 958.164, 219.602 948.276, 218.106 937.660, 216.501 929.620, 222.446 921.579, 228.392 913.538, 234.337 905.498, 240.282 897.457, 246.228 889.417, 252.173 881.376, 258.119 873.335, 264.064 865.295, 270.010 857.254, 275.955 849.213, 281.901 841.173, 287.846 833.132, 293.791 825.091, 299.737 817.051, 305.682 809.010, 311.628 800.970, 317.573 792.929, 323.519 784.888, 329.464 776.848, 335.409 768.807, 341.355 760.766, 347.300 752.726, 353.246 744.685, 359.191 736.644, 365.137 728.604, 371.082 720.563, 377.027 712.523, 382.973 704.482, 388.918 696.441, 394.864 688.401, 400.809 680.360, 406.755 672.319, 412.700 664.279, 418.646 656.238, 424.591 648.198, 430.536 640.157, 436.482 632.116, 442.427 624.076, 448.373 616.035, 454.318 607.994, 460.264 599.954, 466.209 591.913, 472.154 583.872, 478.100 575.832, 484.045 567.791, 489.991 559.751, 495.936 551.710, 501.882 543.669, 507.827 535.629, 513.772 527.588, 519.718 519.547, 525.663 511.507, 531.609 503.466, 537.554 496.302, 542.851 497.164, 552.814 498.026, 562.777 498.888, 572.740 499.750, 582.703 500.612, 592.665 501.474, 602.628 502.336, 612.591 503.198, 622.554 504.060, 632.516 504.922, 642.479 505.784, 652.442 506.646, 662.405 507.508, 672.368 508.370, 682.330 509.232, 692.293 510.094, 702.256 510.723, 709.530 " />
            <path fill="none" stroke-width="3.0" stroke-linecap="butt" stroke-opacity="1.0" stroke="rgb(0, 0, 0)" stroke-linejoin="round" d=" M 1085.639, 669.435 1085.399, 679.432 1085.159, 689.429 1084.919, 699.426 1084.678, 709.423 1084.438, 719.420 1084.198, 729.417 1083.958, 739.414 1083.718, 749.411 1083.478, 759.409 1083.238, 769.406 1082.998, 779.403 1082.758, 789.400 1082.518, 799.397 1082.278, 809.394 1082.038, 819.391 1081.798, 829.388 1081.558, 839.386 1081.372, 847.151 " />
            <path fill="none" stroke-width="3.0" stroke-linecap="butt" stroke-opacity="1.0" stroke="rgb(0, 0, 0)" stroke-linejoin="round" d=" M 496.302, 542.851 506.079, 544.951 515.856, 547.051 525.633, 549.151 535.410, 551.251 545.187, 553.351 554.964, 555.451 564.741, 557.551 574.518, 559.651 584.295, 561.751 594.072, 563.851 603.849, 565.951 613.626, 568.051 623.403, 570.151 633.180, 572.251 642.957, 574.351 652.734, 576.451 662.511, 578.551 672.288, 580.651 682.065, 582.751 691.842, 584.851 701.619, 586.951 711.396, 589.051 721.173, 591.151 730.951, 593.251 740.728, 595.351 750.505, 597.451 760.282, 599.551 770.059, 601.651 779.836, 603.751 789.613, 605.851 799.390, 607.951 809.167, 610.051 818.944, 612.151 828.721, 614.251 838.498, 616.351 848.275, 618.451 858.052, 620.551 867.829, 622.651 877.606, 624.751 887.383, 626.851 897.160, 628.951 906.937, 631.051 916.714, 633.151 926.491, 635.251 936.268, 637.351 946.045, 639.451 955.822, 641.551 965.599, 643.651 975.376, 645.751 985.153, 647.851 994.930, 649.951 1004.707, 652.051 1014.484, 654.151 1024.261, 656.251 1034.038, 658.351 1043.815, 660.451 1053.592, 662.551 1063.369, 664.651 1073.146, 666.751 1085.639, 669.435 1092.025, 661.739 1098.411, 654.044 1104.797, 646.349 1111.184, 638.654 1117.570, 630.959 1123.956, 623.263 1130.342, 615.568 1136.729, 607.873 1143.115, 600.178 1149.501, 592.483 1155.887, 584.787 1162.273, 577.092 1168.660, 569.397 1175.046, 561.702 1181.432, 554.007 1187.818, 546.311 1194.205, 538.616 1200.591, 530.921 1206.977, 523.226 1213.363, 515.531 1219.750, 507.836 1226.136, 500.140 1232.522, 492.445 1238.908, 484.750 1245.295, 477.055 1251.681, 469.360 1258.067, 461.664 1264.453, 453.969 1270.839, 446.274 1277.226, 438.579 1283.612, 430.884 1289.998, 423.188 1296.384, 415.493 1302.771, 407.798 1309.157, 400.103 1315.543, 392.408 1321.929, 384.712 1328.316, 377.017 1334.702, 369.322 1341.088, 361.627 1347.474, 353.932 1353.860, 346.236 1360.247, 338.541 1366.633, 330.846 1373.019, 323.151 1379.406, 315.456 1385.792, 307.760 1392.178, 300.065 1398.564, 292.370 1403.103, 286.901 " />
        </g>
    </g>
</svg>
